# xmcd
#
# Track frame offsets: 
#        150
#        9241
#        25405
#        36053
#        49462
#        60510
#        81544
#        91098
#        102318
#        112426
#        131558
#        145461
#
# Disc length: 2070 seconds
#
# Revision: 0
# Processed by: cddbd v1.5.2PL0 Copyright (c) Steve Scherf et al.
# Submitted via: ExactAudioCopy v1.0b4
#
DISCID=a808140c
DTITLE=Memphis Slim and Mickey Baker - Bluesingly Yours (LP)
DYEAR=1968
DGENRE=Blues
TTITLE0=Don't Doubt Me
TTITLE1=People, People
TTITLE2=Bluesingly Yours
TTITLE3=Waiting Game
TTITLE4=Watch Out Baby
TTITLE5=Feeling The Blues
TTITLE6=The Girl I Met Last Night
TTITLE7=Christina
TTITLE8=The Animal In Me
TTITLE9=Mississippi Water
TTITLE10=My Dog Is Mean
TTITLE11=Paris Scene
EXTD=
EXTT0=
EXTT1=
EXTT2=
EXTT3=
EXTT4=
EXTT5=
EXTT6=
EXTT7=
EXTT8=
EXTT9=
EXTT10=
EXTT11=
PLAYORDER=
